{
    "asset" : {
        "generator" : "Khronos glTF Blender I/O v1.7.33",
        "version" : "2.0"
    },
    "scene" : 0,
    "scenes" : [
        {
            "name" : "Scene",
            "nodes" : [
                0,
                1,
                2,
                4
            ]
        }
    ],
    "nodes" : [
        {
            "mesh" : 0,
            "name" : "\u7acb\u65b9\u4f53",
            "rotation" : [
                -0.06911295652389526,
                -0.061757151037454605,
                -0.00608053058385849,
                0.9956769943237305
            ],
            "translation" : [
                1.0873384475708008,
                -1.609483242034912,
                -18.003841400146484
            ]
        },
        {
            "mesh" : 1,
            "name" : "\u7acb\u65b9\u4f53.001",
            "rotation" : [
                0.1843467503786087,
                0.1647263765335083,
                0.01621873304247856,
                0.968823254108429
            ],
            "translation" : [
                -0.6549586653709412,
                6.042194366455078,
                -26.172592163085938
            ]
        },
        {
            "mesh" : 2,
            "name" : "\u7acb\u65b9\u4f53.002",
            "rotation" : [
                -0.2608700096607208,
                -0.23310516774654388,
                -0.02295120805501938,
                0.9365265965461731
            ],
            "translation" : [
                -5.4531660079956055,
                10.594415664672852,
                -18.519176483154297
            ]
        },
        {
            "camera" : 0,
            "name" : "\u30ab\u30e1\u30e9_Orientation",
            "rotation" : [
                -0.7071067690849304,
                0,
                0,
                0.7071067690849304
            ]
        },
        {
            "children" : [
                3
            ],
            "name" : "\u30ab\u30e1\u30e9",
            "rotation" : [
                -0.6971643567085266,
                0,
                0,
                -0.7169113755226135
            ],
            "scale" : [
                21.29494857788086,
                4.278592109680176,
                4.278592109680176
            ],
            "translation" : [
                0,
                -0.7668843865394592,
                -0.9761562347412109
            ]
        }
    ],
    "cameras" : [
        {
            "name" : "\u30ab\u30e1\u30e9",
            "perspective" : {
                "aspectRatio" : 1.7777777777777777,
                "yfov" : 0.3995964477011588,
                "zfar" : 1000,
                "znear" : 0.10000000149011612
            },
            "type" : "perspective"
        }
    ],
    "animations" : [
        {
            "channels" : [
                {
                    "sampler" : 0,
                    "target" : {
                        "node" : 0,
                        "path" : "translation"
                    }
                },
                {
                    "sampler" : 1,
                    "target" : {
                        "node" : 0,
                        "path" : "rotation"
                    }
                },
                {
                    "sampler" : 2,
                    "target" : {
                        "node" : 0,
                        "path" : "scale"
                    }
                }
            ],
            "name" : "\u7acb\u65b9\u4f53Action",
            "samplers" : [
                {
                    "input" : 10,
                    "interpolation" : "STEP",
                    "output" : 11
                },
                {
                    "input" : 10,
                    "interpolation" : "STEP",
                    "output" : 12
                },
                {
                    "input" : 10,
                    "interpolation" : "STEP",
                    "output" : 13
                }
            ]
        },
        {
            "channels" : [
                {
                    "sampler" : 0,
                    "target" : {
                        "node" : 1,
                        "path" : "translation"
                    }
                },
                {
                    "sampler" : 1,
                    "target" : {
                        "node" : 1,
                        "path" : "rotation"
                    }
                },
                {
                    "sampler" : 2,
                    "target" : {
                        "node" : 1,
                        "path" : "scale"
                    }
                }
            ],
            "name" : "\u7acb\u65b9\u4f53.001Action",
            "samplers" : [
                {
                    "input" : 10,
                    "interpolation" : "STEP",
                    "output" : 14
                },
                {
                    "input" : 10,
                    "interpolation" : "STEP",
                    "output" : 15
                },
                {
                    "input" : 10,
                    "interpolation" : "STEP",
                    "output" : 16
                }
            ]
        },
        {
            "channels" : [
                {
                    "sampler" : 0,
                    "target" : {
                        "node" : 2,
                        "path" : "translation"
                    }
                },
                {
                    "sampler" : 1,
                    "target" : {
                        "node" : 2,
                        "path" : "rotation"
                    }
                },
                {
                    "sampler" : 2,
                    "target" : {
                        "node" : 2,
                        "path" : "scale"
                    }
                }
            ],
            "name" : "\u7acb\u65b9\u4f53.002Action",
            "samplers" : [
                {
                    "input" : 10,
                    "interpolation" : "STEP",
                    "output" : 17
                },
                {
                    "input" : 10,
                    "interpolation" : "STEP",
                    "output" : 18
                },
                {
                    "input" : 10,
                    "interpolation" : "STEP",
                    "output" : 19
                }
            ]
        },
        {
            "channels" : [
                {
                    "sampler" : 0,
                    "target" : {
                        "node" : 4,
                        "path" : "translation"
                    }
                },
                {
                    "sampler" : 1,
                    "target" : {
                        "node" : 4,
                        "path" : "rotation"
                    }
                },
                {
                    "sampler" : 2,
                    "target" : {
                        "node" : 4,
                        "path" : "scale"
                    }
                }
            ],
            "name" : "\u30ab\u30e1\u30e9Action",
            "samplers" : [
                {
                    "input" : 20,
                    "interpolation" : "LINEAR",
                    "output" : 21
                },
                {
                    "input" : 20,
                    "interpolation" : "LINEAR",
                    "output" : 22
                },
                {
                    "input" : 23,
                    "interpolation" : "LINEAR",
                    "output" : 24
                }
            ]
        }
    ],
    "meshes" : [
        {
            "name" : "\u7acb\u65b9\u4f53",
            "primitives" : [
                {
                    "attributes" : {
                        "POSITION" : 0,
                        "NORMAL" : 1,
                        "TEXCOORD_0" : 2
                    },
                    "indices" : 3
                }
            ]
        },
        {
            "name" : "\u7acb\u65b9\u4f53.001",
            "primitives" : [
                {
                    "attributes" : {
                        "POSITION" : 4,
                        "NORMAL" : 5,
                        "TEXCOORD_0" : 6
                    },
                    "indices" : 3
                }
            ]
        },
        {
            "name" : "\u7acb\u65b9\u4f53.002",
            "primitives" : [
                {
                    "attributes" : {
                        "POSITION" : 7,
                        "NORMAL" : 8,
                        "TEXCOORD_0" : 9
                    },
                    "indices" : 3
                }
            ]
        }
    ],
    "accessors" : [
        {
            "bufferView" : 0,
            "componentType" : 5126,
            "count" : 24,
            "max" : [
                1,
                1,
                1
            ],
            "min" : [
                -1,
                -1,
                -1
            ],
            "type" : "VEC3"
        },
        {
            "bufferView" : 1,
            "componentType" : 5126,
            "count" : 24,
            "type" : "VEC3"
        },
        {
            "bufferView" : 2,
            "componentType" : 5126,
            "count" : 24,
            "type" : "VEC2"
        },
        {
            "bufferView" : 3,
            "componentType" : 5123,
            "count" : 36,
            "type" : "SCALAR"
        },
        {
            "bufferView" : 4,
            "componentType" : 5126,
            "count" : 24,
            "max" : [
                1,
                1,
                1
            ],
            "min" : [
                -1,
                -1,
                -1
            ],
            "type" : "VEC3"
        },
        {
            "bufferView" : 5,
            "componentType" : 5126,
            "count" : 24,
            "type" : "VEC3"
        },
        {
            "bufferView" : 6,
            "componentType" : 5126,
            "count" : 24,
            "type" : "VEC2"
        },
        {
            "bufferView" : 7,
            "componentType" : 5126,
            "count" : 24,
            "max" : [
                1,
                1,
                1
            ],
            "min" : [
                -1,
                -1,
                -1
            ],
            "type" : "VEC3"
        },
        {
            "bufferView" : 8,
            "componentType" : 5126,
            "count" : 24,
            "type" : "VEC3"
        },
        {
            "bufferView" : 9,
            "componentType" : 5126,
            "count" : 24,
            "type" : "VEC2"
        },
        {
            "bufferView" : 10,
            "componentType" : 5126,
            "count" : 1,
            "max" : [
                0.041666666666666664
            ],
            "min" : [
                0.041666666666666664
            ],
            "type" : "SCALAR"
        },
        {
            "bufferView" : 11,
            "componentType" : 5126,
            "count" : 1,
            "type" : "VEC3"
        },
        {
            "bufferView" : 12,
            "componentType" : 5126,
            "count" : 1,
            "type" : "VEC4"
        },
        {
            "bufferView" : 13,
            "componentType" : 5126,
            "count" : 1,
            "type" : "VEC3"
        },
        {
            "bufferView" : 14,
            "componentType" : 5126,
            "count" : 1,
            "type" : "VEC3"
        },
        {
            "bufferView" : 15,
            "componentType" : 5126,
            "count" : 1,
            "type" : "VEC4"
        },
        {
            "bufferView" : 16,
            "componentType" : 5126,
            "count" : 1,
            "type" : "VEC3"
        },
        {
            "bufferView" : 17,
            "componentType" : 5126,
            "count" : 1,
            "type" : "VEC3"
        },
        {
            "bufferView" : 18,
            "componentType" : 5126,
            "count" : 1,
            "type" : "VEC4"
        },
        {
            "bufferView" : 19,
            "componentType" : 5126,
            "count" : 1,
            "type" : "VEC3"
        },
        {
            "bufferView" : 20,
            "componentType" : 5126,
            "count" : 60,
            "max" : [
                2.5
            ],
            "min" : [
                0.041666666666666664
            ],
            "type" : "SCALAR"
        },
        {
            "bufferView" : 21,
            "componentType" : 5126,
            "count" : 60,
            "type" : "VEC3"
        },
        {
            "bufferView" : 22,
            "componentType" : 5126,
            "count" : 60,
            "type" : "VEC4"
        },
        {
            "bufferView" : 23,
            "componentType" : 5126,
            "count" : 2,
            "max" : [
                2.5
            ],
            "min" : [
                0.041666666666666664
            ],
            "type" : "SCALAR"
        },
        {
            "bufferView" : 24,
            "componentType" : 5126,
            "count" : 2,
            "type" : "VEC3"
        }
    ],
    "bufferViews" : [
        {
            "buffer" : 0,
            "byteLength" : 288,
            "byteOffset" : 0
        },
        {
            "buffer" : 0,
            "byteLength" : 288,
            "byteOffset" : 288
        },
        {
            "buffer" : 0,
            "byteLength" : 192,
            "byteOffset" : 576
        },
        {
            "buffer" : 0,
            "byteLength" : 72,
            "byteOffset" : 768
        },
        {
            "buffer" : 0,
            "byteLength" : 288,
            "byteOffset" : 840
        },
        {
            "buffer" : 0,
            "byteLength" : 288,
            "byteOffset" : 1128
        },
        {
            "buffer" : 0,
            "byteLength" : 192,
            "byteOffset" : 1416
        },
        {
            "buffer" : 0,
            "byteLength" : 288,
            "byteOffset" : 1608
        },
        {
            "buffer" : 0,
            "byteLength" : 288,
            "byteOffset" : 1896
        },
        {
            "buffer" : 0,
            "byteLength" : 192,
            "byteOffset" : 2184
        },
        {
            "buffer" : 0,
            "byteLength" : 4,
            "byteOffset" : 2376
        },
        {
            "buffer" : 0,
            "byteLength" : 12,
            "byteOffset" : 2380
        },
        {
            "buffer" : 0,
            "byteLength" : 16,
            "byteOffset" : 2392
        },
        {
            "buffer" : 0,
            "byteLength" : 12,
            "byteOffset" : 2408
        },
        {
            "buffer" : 0,
            "byteLength" : 12,
            "byteOffset" : 2420
        },
        {
            "buffer" : 0,
            "byteLength" : 16,
            "byteOffset" : 2432
        },
        {
            "buffer" : 0,
            "byteLength" : 12,
            "byteOffset" : 2448
        },
        {
            "buffer" : 0,
            "byteLength" : 12,
            "byteOffset" : 2460
        },
        {
            "buffer" : 0,
            "byteLength" : 16,
            "byteOffset" : 2472
        },
        {
            "buffer" : 0,
            "byteLength" : 12,
            "byteOffset" : 2488
        },
        {
            "buffer" : 0,
            "byteLength" : 240,
            "byteOffset" : 2500
        },
        {
            "buffer" : 0,
            "byteLength" : 720,
            "byteOffset" : 2740
        },
        {
            "buffer" : 0,
            "byteLength" : 960,
            "byteOffset" : 3460
        },
        {
            "buffer" : 0,
            "byteLength" : 8,
            "byteOffset" : 4420
        },
        {
            "buffer" : 0,
            "byteLength" : 24,
            "byteOffset" : 4428
        }
    ],
    "buffers" : [
        {
            "byteLength" : 4452,
            "uri" : "cubeanimation.bin"
        }
    ]
}
